<mxfile host="Electron" modified="2024-03-11T13:18:31.051Z" agent="Mozilla/5.0 (Windows NT 10.0; Win64; x64) AppleWebKit/537.36 (KHTML, like Gecko) draw.io/23.1.5 Chrome/120.0.6099.109 Electron/28.1.0 Safari/537.36" etag="op_iJe6V-AFO-hj5nCkM" version="23.1.5" type="device">
  <diagram id="C5RBs43oDa-KdzZeNtuy" name="Page-1">
    <mxGraphModel dx="581" dy="835" grid="1" gridSize="10" guides="1" tooltips="1" connect="1" arrows="1" fold="1" page="1" pageScale="1" pageWidth="827" pageHeight="1169" math="0" shadow="0">
      <root>
        <mxCell id="WIyWlLk6GJQsqaUBKTNV-0" />
        <mxCell id="WIyWlLk6GJQsqaUBKTNV-1" parent="WIyWlLk6GJQsqaUBKTNV-0" />
        <mxCell id="nLrr4pnA4hzvLjcogjVB-1" style="edgeStyle=orthogonalEdgeStyle;rounded=0;orthogonalLoop=1;jettySize=auto;html=1;entryX=0.5;entryY=0;entryDx=0;entryDy=0;" edge="1" parent="WIyWlLk6GJQsqaUBKTNV-1" source="WIyWlLk6GJQsqaUBKTNV-3" target="nLrr4pnA4hzvLjcogjVB-0">
          <mxGeometry relative="1" as="geometry" />
        </mxCell>
        <mxCell id="WIyWlLk6GJQsqaUBKTNV-3" value="Start" style="rounded=1;whiteSpace=wrap;html=1;fontSize=12;glass=0;strokeWidth=1;shadow=0;" parent="WIyWlLk6GJQsqaUBKTNV-1" vertex="1">
          <mxGeometry x="160" y="80" width="120" height="40" as="geometry" />
        </mxCell>
        <mxCell id="nLrr4pnA4hzvLjcogjVB-3" value="" style="edgeStyle=orthogonalEdgeStyle;rounded=0;orthogonalLoop=1;jettySize=auto;html=1;" edge="1" parent="WIyWlLk6GJQsqaUBKTNV-1" source="nLrr4pnA4hzvLjcogjVB-0" target="nLrr4pnA4hzvLjcogjVB-2">
          <mxGeometry relative="1" as="geometry" />
        </mxCell>
        <mxCell id="nLrr4pnA4hzvLjcogjVB-0" value="int[] array = { 12, 31, 57, 99, 34 };" style="shape=parallelogram;perimeter=parallelogramPerimeter;whiteSpace=wrap;html=1;fixedSize=1;" vertex="1" parent="WIyWlLk6GJQsqaUBKTNV-1">
          <mxGeometry x="120" y="170" width="200" height="60" as="geometry" />
        </mxCell>
        <mxCell id="nLrr4pnA4hzvLjcogjVB-5" value="" style="edgeStyle=orthogonalEdgeStyle;rounded=0;orthogonalLoop=1;jettySize=auto;html=1;" edge="1" parent="WIyWlLk6GJQsqaUBKTNV-1" source="nLrr4pnA4hzvLjcogjVB-2" target="nLrr4pnA4hzvLjcogjVB-4">
          <mxGeometry relative="1" as="geometry" />
        </mxCell>
        <mxCell id="nLrr4pnA4hzvLjcogjVB-2" value="int hasil=1;" style="whiteSpace=wrap;html=1;" vertex="1" parent="WIyWlLk6GJQsqaUBKTNV-1">
          <mxGeometry x="160" y="280" width="120" height="60" as="geometry" />
        </mxCell>
        <mxCell id="nLrr4pnA4hzvLjcogjVB-7" value="" style="edgeStyle=orthogonalEdgeStyle;rounded=0;orthogonalLoop=1;jettySize=auto;html=1;" edge="1" parent="WIyWlLk6GJQsqaUBKTNV-1" source="nLrr4pnA4hzvLjcogjVB-4" target="nLrr4pnA4hzvLjcogjVB-6">
          <mxGeometry relative="1" as="geometry" />
        </mxCell>
        <mxCell id="nLrr4pnA4hzvLjcogjVB-12" value="true" style="edgeLabel;html=1;align=center;verticalAlign=middle;resizable=0;points=[];" vertex="1" connectable="0" parent="nLrr4pnA4hzvLjcogjVB-7">
          <mxGeometry x="0.12" y="3" relative="1" as="geometry">
            <mxPoint as="offset" />
          </mxGeometry>
        </mxCell>
        <mxCell id="nLrr4pnA4hzvLjcogjVB-15" style="edgeStyle=orthogonalEdgeStyle;rounded=0;orthogonalLoop=1;jettySize=auto;html=1;" edge="1" parent="WIyWlLk6GJQsqaUBKTNV-1" source="nLrr4pnA4hzvLjcogjVB-4" target="nLrr4pnA4hzvLjcogjVB-16">
          <mxGeometry relative="1" as="geometry">
            <mxPoint x="380" y="440" as="targetPoint" />
          </mxGeometry>
        </mxCell>
        <mxCell id="nLrr4pnA4hzvLjcogjVB-17" value="false" style="edgeLabel;html=1;align=center;verticalAlign=middle;resizable=0;points=[];" vertex="1" connectable="0" parent="nLrr4pnA4hzvLjcogjVB-15">
          <mxGeometry x="-0.1667" y="-1" relative="1" as="geometry">
            <mxPoint as="offset" />
          </mxGeometry>
        </mxCell>
        <mxCell id="nLrr4pnA4hzvLjcogjVB-4" value="int i=0;i&amp;lt;array.Length;i++" style="shape=hexagon;perimeter=hexagonPerimeter2;whiteSpace=wrap;html=1;fixedSize=1;" vertex="1" parent="WIyWlLk6GJQsqaUBKTNV-1">
          <mxGeometry x="140" y="390" width="160" height="100" as="geometry" />
        </mxCell>
        <mxCell id="nLrr4pnA4hzvLjcogjVB-8" value="false" style="edgeStyle=orthogonalEdgeStyle;rounded=0;orthogonalLoop=1;jettySize=auto;html=1;entryX=0;entryY=0.5;entryDx=0;entryDy=0;" edge="1" parent="WIyWlLk6GJQsqaUBKTNV-1" source="nLrr4pnA4hzvLjcogjVB-6" target="nLrr4pnA4hzvLjcogjVB-4">
          <mxGeometry relative="1" as="geometry">
            <Array as="points">
              <mxPoint x="120" y="590" />
              <mxPoint x="120" y="440" />
            </Array>
          </mxGeometry>
        </mxCell>
        <mxCell id="nLrr4pnA4hzvLjcogjVB-14" value="true" style="edgeStyle=orthogonalEdgeStyle;rounded=0;orthogonalLoop=1;jettySize=auto;html=1;entryX=0.5;entryY=0;entryDx=0;entryDy=0;" edge="1" parent="WIyWlLk6GJQsqaUBKTNV-1" source="nLrr4pnA4hzvLjcogjVB-6" target="nLrr4pnA4hzvLjcogjVB-9">
          <mxGeometry relative="1" as="geometry" />
        </mxCell>
        <mxCell id="nLrr4pnA4hzvLjcogjVB-6" value="array[i] % 2 == 0" style="rhombus;whiteSpace=wrap;html=1;" vertex="1" parent="WIyWlLk6GJQsqaUBKTNV-1">
          <mxGeometry x="170" y="540" width="100" height="100" as="geometry" />
        </mxCell>
        <mxCell id="nLrr4pnA4hzvLjcogjVB-11" style="edgeStyle=orthogonalEdgeStyle;rounded=0;orthogonalLoop=1;jettySize=auto;html=1;exitX=0;exitY=0.5;exitDx=0;exitDy=0;" edge="1" parent="WIyWlLk6GJQsqaUBKTNV-1" source="nLrr4pnA4hzvLjcogjVB-9">
          <mxGeometry relative="1" as="geometry">
            <mxPoint x="130" y="720" as="sourcePoint" />
            <mxPoint x="130" y="440" as="targetPoint" />
            <Array as="points">
              <mxPoint x="90" y="720" />
              <mxPoint x="90" y="440" />
            </Array>
          </mxGeometry>
        </mxCell>
        <mxCell id="nLrr4pnA4hzvLjcogjVB-9" value="hasil*=array[i];" style="whiteSpace=wrap;html=1;" vertex="1" parent="WIyWlLk6GJQsqaUBKTNV-1">
          <mxGeometry x="160" y="690" width="120" height="60" as="geometry" />
        </mxCell>
        <mxCell id="nLrr4pnA4hzvLjcogjVB-19" value="" style="edgeStyle=orthogonalEdgeStyle;rounded=0;orthogonalLoop=1;jettySize=auto;html=1;" edge="1" parent="WIyWlLk6GJQsqaUBKTNV-1" source="nLrr4pnA4hzvLjcogjVB-16" target="nLrr4pnA4hzvLjcogjVB-18">
          <mxGeometry relative="1" as="geometry" />
        </mxCell>
        <mxCell id="nLrr4pnA4hzvLjcogjVB-16" value="hasil" style="shape=document;whiteSpace=wrap;html=1;boundedLbl=1;" vertex="1" parent="WIyWlLk6GJQsqaUBKTNV-1">
          <mxGeometry x="360" y="400" width="120" height="80" as="geometry" />
        </mxCell>
        <mxCell id="nLrr4pnA4hzvLjcogjVB-18" value="end" style="rounded=1;whiteSpace=wrap;html=1;" vertex="1" parent="WIyWlLk6GJQsqaUBKTNV-1">
          <mxGeometry x="360" y="570" width="120" height="60" as="geometry" />
        </mxCell>
        <mxCell id="nLrr4pnA4hzvLjcogjVB-20" style="edgeStyle=orthogonalEdgeStyle;rounded=0;orthogonalLoop=1;jettySize=auto;html=1;entryX=0.5;entryY=0;entryDx=0;entryDy=0;" edge="1" parent="WIyWlLk6GJQsqaUBKTNV-1" source="nLrr4pnA4hzvLjcogjVB-21" target="nLrr4pnA4hzvLjcogjVB-23">
          <mxGeometry relative="1" as="geometry" />
        </mxCell>
        <mxCell id="nLrr4pnA4hzvLjcogjVB-21" value="Start" style="rounded=1;whiteSpace=wrap;html=1;fontSize=12;glass=0;strokeWidth=1;shadow=0;" vertex="1" parent="WIyWlLk6GJQsqaUBKTNV-1">
          <mxGeometry x="680" y="40" width="120" height="40" as="geometry" />
        </mxCell>
        <mxCell id="nLrr4pnA4hzvLjcogjVB-22" value="" style="edgeStyle=orthogonalEdgeStyle;rounded=0;orthogonalLoop=1;jettySize=auto;html=1;" edge="1" parent="WIyWlLk6GJQsqaUBKTNV-1" source="nLrr4pnA4hzvLjcogjVB-23" target="nLrr4pnA4hzvLjcogjVB-25">
          <mxGeometry relative="1" as="geometry" />
        </mxCell>
        <mxCell id="nLrr4pnA4hzvLjcogjVB-23" value="int[] array2 = { 323, 31,2, 345,4 };" style="shape=parallelogram;perimeter=parallelogramPerimeter;whiteSpace=wrap;html=1;fixedSize=1;" vertex="1" parent="WIyWlLk6GJQsqaUBKTNV-1">
          <mxGeometry x="640" y="130" width="200" height="60" as="geometry" />
        </mxCell>
        <mxCell id="nLrr4pnA4hzvLjcogjVB-24" value="" style="edgeStyle=orthogonalEdgeStyle;rounded=0;orthogonalLoop=1;jettySize=auto;html=1;" edge="1" parent="WIyWlLk6GJQsqaUBKTNV-1" source="nLrr4pnA4hzvLjcogjVB-25" target="nLrr4pnA4hzvLjcogjVB-30">
          <mxGeometry relative="1" as="geometry" />
        </mxCell>
        <mxCell id="nLrr4pnA4hzvLjcogjVB-25" value="int sum=0" style="whiteSpace=wrap;html=1;" vertex="1" parent="WIyWlLk6GJQsqaUBKTNV-1">
          <mxGeometry x="680" y="240" width="120" height="60" as="geometry" />
        </mxCell>
        <mxCell id="nLrr4pnA4hzvLjcogjVB-26" value="" style="edgeStyle=orthogonalEdgeStyle;rounded=0;orthogonalLoop=1;jettySize=auto;html=1;" edge="1" parent="WIyWlLk6GJQsqaUBKTNV-1" source="nLrr4pnA4hzvLjcogjVB-30" target="nLrr4pnA4hzvLjcogjVB-33">
          <mxGeometry relative="1" as="geometry" />
        </mxCell>
        <mxCell id="nLrr4pnA4hzvLjcogjVB-27" value="true" style="edgeLabel;html=1;align=center;verticalAlign=middle;resizable=0;points=[];" vertex="1" connectable="0" parent="nLrr4pnA4hzvLjcogjVB-26">
          <mxGeometry x="0.12" y="3" relative="1" as="geometry">
            <mxPoint as="offset" />
          </mxGeometry>
        </mxCell>
        <mxCell id="nLrr4pnA4hzvLjcogjVB-28" style="edgeStyle=orthogonalEdgeStyle;rounded=0;orthogonalLoop=1;jettySize=auto;html=1;" edge="1" parent="WIyWlLk6GJQsqaUBKTNV-1" source="nLrr4pnA4hzvLjcogjVB-30" target="nLrr4pnA4hzvLjcogjVB-37">
          <mxGeometry relative="1" as="geometry">
            <mxPoint x="900" y="400" as="targetPoint" />
          </mxGeometry>
        </mxCell>
        <mxCell id="nLrr4pnA4hzvLjcogjVB-29" value="false" style="edgeLabel;html=1;align=center;verticalAlign=middle;resizable=0;points=[];" vertex="1" connectable="0" parent="nLrr4pnA4hzvLjcogjVB-28">
          <mxGeometry x="-0.1667" y="-1" relative="1" as="geometry">
            <mxPoint as="offset" />
          </mxGeometry>
        </mxCell>
        <mxCell id="nLrr4pnA4hzvLjcogjVB-30" value="int i=0;i&amp;lt;array2.Length;i++" style="shape=hexagon;perimeter=hexagonPerimeter2;whiteSpace=wrap;html=1;fixedSize=1;" vertex="1" parent="WIyWlLk6GJQsqaUBKTNV-1">
          <mxGeometry x="660" y="350" width="160" height="100" as="geometry" />
        </mxCell>
        <mxCell id="nLrr4pnA4hzvLjcogjVB-31" value="false" style="edgeStyle=orthogonalEdgeStyle;rounded=0;orthogonalLoop=1;jettySize=auto;html=1;entryX=0;entryY=0.5;entryDx=0;entryDy=0;" edge="1" parent="WIyWlLk6GJQsqaUBKTNV-1" source="nLrr4pnA4hzvLjcogjVB-33" target="nLrr4pnA4hzvLjcogjVB-30">
          <mxGeometry relative="1" as="geometry">
            <Array as="points">
              <mxPoint x="640" y="550" />
              <mxPoint x="640" y="400" />
            </Array>
          </mxGeometry>
        </mxCell>
        <mxCell id="nLrr4pnA4hzvLjcogjVB-32" value="true" style="edgeStyle=orthogonalEdgeStyle;rounded=0;orthogonalLoop=1;jettySize=auto;html=1;entryX=0.5;entryY=0;entryDx=0;entryDy=0;" edge="1" parent="WIyWlLk6GJQsqaUBKTNV-1" source="nLrr4pnA4hzvLjcogjVB-33" target="nLrr4pnA4hzvLjcogjVB-35">
          <mxGeometry relative="1" as="geometry" />
        </mxCell>
        <mxCell id="nLrr4pnA4hzvLjcogjVB-33" value="array2[i] % 2 == 0" style="rhombus;whiteSpace=wrap;html=1;" vertex="1" parent="WIyWlLk6GJQsqaUBKTNV-1">
          <mxGeometry x="690" y="500" width="100" height="100" as="geometry" />
        </mxCell>
        <mxCell id="nLrr4pnA4hzvLjcogjVB-34" style="edgeStyle=orthogonalEdgeStyle;rounded=0;orthogonalLoop=1;jettySize=auto;html=1;exitX=0;exitY=0.5;exitDx=0;exitDy=0;" edge="1" parent="WIyWlLk6GJQsqaUBKTNV-1" source="nLrr4pnA4hzvLjcogjVB-35">
          <mxGeometry relative="1" as="geometry">
            <mxPoint x="650" y="680" as="sourcePoint" />
            <mxPoint x="650" y="400" as="targetPoint" />
            <Array as="points">
              <mxPoint x="610" y="680" />
              <mxPoint x="610" y="400" />
            </Array>
          </mxGeometry>
        </mxCell>
        <mxCell id="nLrr4pnA4hzvLjcogjVB-35" value="sum+=array2[i];" style="whiteSpace=wrap;html=1;" vertex="1" parent="WIyWlLk6GJQsqaUBKTNV-1">
          <mxGeometry x="680" y="650" width="120" height="60" as="geometry" />
        </mxCell>
        <mxCell id="nLrr4pnA4hzvLjcogjVB-36" value="" style="edgeStyle=orthogonalEdgeStyle;rounded=0;orthogonalLoop=1;jettySize=auto;html=1;" edge="1" parent="WIyWlLk6GJQsqaUBKTNV-1" source="nLrr4pnA4hzvLjcogjVB-37" target="nLrr4pnA4hzvLjcogjVB-38">
          <mxGeometry relative="1" as="geometry" />
        </mxCell>
        <mxCell id="nLrr4pnA4hzvLjcogjVB-37" value="hasil" style="shape=document;whiteSpace=wrap;html=1;boundedLbl=1;" vertex="1" parent="WIyWlLk6GJQsqaUBKTNV-1">
          <mxGeometry x="880" y="360" width="120" height="80" as="geometry" />
        </mxCell>
        <mxCell id="nLrr4pnA4hzvLjcogjVB-38" value="end" style="rounded=1;whiteSpace=wrap;html=1;" vertex="1" parent="WIyWlLk6GJQsqaUBKTNV-1">
          <mxGeometry x="880" y="530" width="120" height="60" as="geometry" />
        </mxCell>
        <mxCell id="nLrr4pnA4hzvLjcogjVB-40" style="edgeStyle=orthogonalEdgeStyle;rounded=0;orthogonalLoop=1;jettySize=auto;html=1;entryX=0.5;entryY=0;entryDx=0;entryDy=0;" edge="1" parent="WIyWlLk6GJQsqaUBKTNV-1" source="nLrr4pnA4hzvLjcogjVB-41" target="nLrr4pnA4hzvLjcogjVB-43">
          <mxGeometry relative="1" as="geometry" />
        </mxCell>
        <mxCell id="nLrr4pnA4hzvLjcogjVB-41" value="Start" style="rounded=1;whiteSpace=wrap;html=1;fontSize=12;glass=0;strokeWidth=1;shadow=0;" vertex="1" parent="WIyWlLk6GJQsqaUBKTNV-1">
          <mxGeometry x="1210" y="40" width="120" height="40" as="geometry" />
        </mxCell>
        <mxCell id="nLrr4pnA4hzvLjcogjVB-42" value="" style="edgeStyle=orthogonalEdgeStyle;rounded=0;orthogonalLoop=1;jettySize=auto;html=1;" edge="1" parent="WIyWlLk6GJQsqaUBKTNV-1" source="nLrr4pnA4hzvLjcogjVB-43" target="nLrr4pnA4hzvLjcogjVB-45">
          <mxGeometry relative="1" as="geometry" />
        </mxCell>
        <mxCell id="nLrr4pnA4hzvLjcogjVB-43" value="int[] arr = { 12, 31, 57, 99, 34 };&lt;br&gt;int n = 58;" style="shape=parallelogram;perimeter=parallelogramPerimeter;whiteSpace=wrap;html=1;fixedSize=1;" vertex="1" parent="WIyWlLk6GJQsqaUBKTNV-1">
          <mxGeometry x="1170" y="130" width="200" height="60" as="geometry" />
        </mxCell>
        <mxCell id="nLrr4pnA4hzvLjcogjVB-44" value="" style="edgeStyle=orthogonalEdgeStyle;rounded=0;orthogonalLoop=1;jettySize=auto;html=1;" edge="1" parent="WIyWlLk6GJQsqaUBKTNV-1" source="nLrr4pnA4hzvLjcogjVB-45" target="nLrr4pnA4hzvLjcogjVB-50">
          <mxGeometry relative="1" as="geometry" />
        </mxCell>
        <mxCell id="nLrr4pnA4hzvLjcogjVB-45" value="bool t=false;" style="whiteSpace=wrap;html=1;" vertex="1" parent="WIyWlLk6GJQsqaUBKTNV-1">
          <mxGeometry x="1210" y="240" width="120" height="60" as="geometry" />
        </mxCell>
        <mxCell id="nLrr4pnA4hzvLjcogjVB-46" value="" style="edgeStyle=orthogonalEdgeStyle;rounded=0;orthogonalLoop=1;jettySize=auto;html=1;" edge="1" parent="WIyWlLk6GJQsqaUBKTNV-1" source="nLrr4pnA4hzvLjcogjVB-50" target="nLrr4pnA4hzvLjcogjVB-53">
          <mxGeometry relative="1" as="geometry" />
        </mxCell>
        <mxCell id="nLrr4pnA4hzvLjcogjVB-47" value="true" style="edgeLabel;html=1;align=center;verticalAlign=middle;resizable=0;points=[];" vertex="1" connectable="0" parent="nLrr4pnA4hzvLjcogjVB-46">
          <mxGeometry x="0.12" y="3" relative="1" as="geometry">
            <mxPoint as="offset" />
          </mxGeometry>
        </mxCell>
        <mxCell id="nLrr4pnA4hzvLjcogjVB-48" style="edgeStyle=orthogonalEdgeStyle;rounded=0;orthogonalLoop=1;jettySize=auto;html=1;" edge="1" parent="WIyWlLk6GJQsqaUBKTNV-1" source="nLrr4pnA4hzvLjcogjVB-50" target="nLrr4pnA4hzvLjcogjVB-57">
          <mxGeometry relative="1" as="geometry">
            <mxPoint x="1430" y="400" as="targetPoint" />
          </mxGeometry>
        </mxCell>
        <mxCell id="nLrr4pnA4hzvLjcogjVB-49" value="false" style="edgeLabel;html=1;align=center;verticalAlign=middle;resizable=0;points=[];" vertex="1" connectable="0" parent="nLrr4pnA4hzvLjcogjVB-48">
          <mxGeometry x="-0.1667" y="-1" relative="1" as="geometry">
            <mxPoint as="offset" />
          </mxGeometry>
        </mxCell>
        <mxCell id="nLrr4pnA4hzvLjcogjVB-50" value="int i=0;i&amp;lt;arr.Length;i++" style="shape=hexagon;perimeter=hexagonPerimeter2;whiteSpace=wrap;html=1;fixedSize=1;" vertex="1" parent="WIyWlLk6GJQsqaUBKTNV-1">
          <mxGeometry x="1190" y="350" width="160" height="100" as="geometry" />
        </mxCell>
        <mxCell id="nLrr4pnA4hzvLjcogjVB-51" value="false" style="edgeStyle=orthogonalEdgeStyle;rounded=0;orthogonalLoop=1;jettySize=auto;html=1;entryX=0;entryY=0.5;entryDx=0;entryDy=0;" edge="1" parent="WIyWlLk6GJQsqaUBKTNV-1" source="nLrr4pnA4hzvLjcogjVB-53" target="nLrr4pnA4hzvLjcogjVB-50">
          <mxGeometry relative="1" as="geometry">
            <Array as="points">
              <mxPoint x="1170" y="550" />
              <mxPoint x="1170" y="400" />
            </Array>
          </mxGeometry>
        </mxCell>
        <mxCell id="nLrr4pnA4hzvLjcogjVB-52" value="true" style="edgeStyle=orthogonalEdgeStyle;rounded=0;orthogonalLoop=1;jettySize=auto;html=1;entryX=0.5;entryY=0;entryDx=0;entryDy=0;" edge="1" parent="WIyWlLk6GJQsqaUBKTNV-1" source="nLrr4pnA4hzvLjcogjVB-53" target="nLrr4pnA4hzvLjcogjVB-55">
          <mxGeometry relative="1" as="geometry" />
        </mxCell>
        <mxCell id="nLrr4pnA4hzvLjcogjVB-53" value="n &amp;gt; arr[i]" style="rhombus;whiteSpace=wrap;html=1;" vertex="1" parent="WIyWlLk6GJQsqaUBKTNV-1">
          <mxGeometry x="1220" y="500" width="100" height="100" as="geometry" />
        </mxCell>
        <mxCell id="nLrr4pnA4hzvLjcogjVB-59" style="edgeStyle=orthogonalEdgeStyle;rounded=0;orthogonalLoop=1;jettySize=auto;html=1;entryX=0;entryY=0.5;entryDx=0;entryDy=0;" edge="1" parent="WIyWlLk6GJQsqaUBKTNV-1" source="nLrr4pnA4hzvLjcogjVB-55" target="nLrr4pnA4hzvLjcogjVB-57">
          <mxGeometry relative="1" as="geometry" />
        </mxCell>
        <mxCell id="nLrr4pnA4hzvLjcogjVB-55" value="&lt;div&gt;&amp;nbsp;t=true;&lt;/div&gt;&lt;div&gt;&amp;nbsp; &amp;nbsp; &amp;nbsp; &amp;nbsp; break;&lt;/div&gt;" style="whiteSpace=wrap;html=1;" vertex="1" parent="WIyWlLk6GJQsqaUBKTNV-1">
          <mxGeometry x="1210" y="650" width="120" height="60" as="geometry" />
        </mxCell>
        <mxCell id="nLrr4pnA4hzvLjcogjVB-56" value="" style="edgeStyle=orthogonalEdgeStyle;rounded=0;orthogonalLoop=1;jettySize=auto;html=1;" edge="1" parent="WIyWlLk6GJQsqaUBKTNV-1" source="nLrr4pnA4hzvLjcogjVB-57" target="nLrr4pnA4hzvLjcogjVB-58">
          <mxGeometry relative="1" as="geometry" />
        </mxCell>
        <mxCell id="nLrr4pnA4hzvLjcogjVB-57" value="t" style="shape=document;whiteSpace=wrap;html=1;boundedLbl=1;" vertex="1" parent="WIyWlLk6GJQsqaUBKTNV-1">
          <mxGeometry x="1410" y="360" width="120" height="80" as="geometry" />
        </mxCell>
        <mxCell id="nLrr4pnA4hzvLjcogjVB-58" value="end" style="rounded=1;whiteSpace=wrap;html=1;" vertex="1" parent="WIyWlLk6GJQsqaUBKTNV-1">
          <mxGeometry x="1410" y="530" width="120" height="60" as="geometry" />
        </mxCell>
      </root>
    </mxGraphModel>
  </diagram>
</mxfile>
